<svg xmlns="http://www.w3.org/2000/svg" width="180" height="180" viewBox="0 0 180 180">
    <g fill="none" fill-rule="evenodd">
        <g>
            <g>
                <g>
                    <path fill="#FFF" d="M107.067 115.857l.002 13.912c-13.297 7.727-24.596 11.384-33.896 10.972-12.542-.74-24.027-4.35-33.988-9.454l6.695-12.803 61.187-2.627zm-70.515 3.028l-5.047 7.998c-3.611-2.302-6.964-4.78-10.028-7.35l15.075-.648zm86.054.666c-.438.318-.875.634-1.31.945l-.943-5.21 9.384-.403c-2.402 1.52-4.78 3.076-7.13 4.668zM.611 91.037l52.182 2.117-12.98 20.563-24.222.433C7.33 105.896 2.046 97.332.611 91.037zM59 93.405l48.068 1.95v17.161l-58.612 1.047 10.544-20.158zm57.817 2.347l42.369 1.72c-2.939 2.19-6.049 4.14-9.33 5.848-5.28 2.747-10.448 5.65-15.504 8.71l-14.542.259-2.993-16.537zm62.989-33.51c.76 6.085-1.207 12.87-5.9 20.354-3.394 4.582-7.165 8.636-11.312 12.16l-46.443-2.68-5.33-29.444 68.985-.39zm-72.737.411v28.899l-45.72-2.639 13.642-26.08 32.078-.18zm-35.15.198L55.676 88.586.128 85.382l-.037-.659-.032-.68-.025-.702-.02-.724-.011-.744c-.001-.126-.003-.252-.003-.38l.002-.774c.005-.523.016-1.06.035-1.608l.035-.833c.211-4.35.937-9.445 2.76-15.036l69.087-.39zm15.864-25.134L74.37 58.967 3.775 60.573c3.47-9.128 9.949-19.412 21.781-29.86 16.794-14.829 37.536-12.494 62.226 7.004zm.246.195c1.027.814 2.06 1.659 3.1 2.533 4.129 4.34 9.442 6.838 15.94 7.495v10.283l-30.023.683 10.983-20.994zm85.594 11.953c2.02 2.123 3.557 4.37 4.611 6.74l-68.223 1.551-1.832-10.123c4.506.306 9.558-.24 15.158-1.634l4.43-1.103 2.466-.604 1.817-.435 1.196-.281 1.185-.272 1.172-.263 1.162-.252 1.149-.241c.19-.04.38-.078.57-.116l1.132-.224c13.703-2.636 24.854-2.367 34.007 7.257z" transform="translate(-841.000000, -267.000000) translate(841.000000, 267.000000) translate(0.000000, 19.500000)"/>
                    <path fill="#CAC5D0" d="M106.246 0c14.16 0 25.639 11.564 25.639 25.83 0 12.501-8.816 22.928-20.525 25.316l-5.114 7.21-5.113-7.21C89.423 48.758 80.608 38.33 80.608 25.83 80.608 11.564 92.086 0 106.246 0z" transform="translate(-841.000000, -267.000000) translate(841.000000, 267.000000) translate(0.000000, 19.500000)"/>
                    <path fill="#EAE3E3" d="M134.224 69.028c10.37 0 18.777 8.47 18.777 18.918 0 9.156-6.457 16.793-15.033 18.541l-3.744 5.281-3.744-5.28c-8.577-1.749-15.034-9.386-15.034-18.542 0-10.448 8.407-18.918 18.778-18.918zM19.644 44.672c9.971 0 18.055 8.144 18.055 18.19 0 8.804-6.208 16.147-14.455 17.829l-3.6 5.077-3.6-5.077C7.797 79.01 1.59 71.667 1.59 62.862c0-10.046 8.083-18.19 18.055-18.19z" transform="translate(-841.000000, -267.000000) translate(841.000000, 267.000000) translate(0.000000, 19.500000)"/>
                    <path fill="#FFF" fill-rule="nonzero" d="M103.915 33.945v-5.827h4.662v5.827c0 .64.524 1.165 1.165 1.165h3.496c.641 0 1.166-.524 1.166-1.165v-8.158h1.981c.536 0 .792-.664.385-1.014l-9.743-8.775c-.443-.397-1.119-.397-1.562 0l-9.742 8.775c-.396.35-.152 1.014.384 1.014h1.981v8.158c0 .64.525 1.165 1.166 1.165h3.496c.641 0 1.165-.524 1.165-1.165zM132.517 94.198v-4.267h3.414v4.267c0 .47.384.854.853.854h2.56c.47 0 .854-.384.854-.854v-5.974h1.451c.393 0 .58-.487.282-.743l-7.135-6.427c-.325-.29-.82-.29-1.144 0l-7.136 6.427c-.29.256-.11.743.282.743h1.451v5.974c0 .47.384.854.854.854h2.56c.47 0 .854-.384.854-.854zM18.002 68.874v-4.103h3.283v4.103c0 .452.37.82.82.82h2.463c.451 0 .82-.368.82-.82V63.13h1.396c.377 0 .558-.468.27-.714l-6.86-6.18c-.312-.279-.788-.279-1.1 0l-6.861 6.18c-.28.246-.107.714.27.714H13.9v5.745c0 .452.37.82.82.82h2.463c.451 0 .82-.368.82-.82z" transform="translate(-841.000000, -267.000000) translate(841.000000, 267.000000) translate(0.000000, 19.500000)"/>
                </g>
            </g>
        </g>
    </g>
</svg>
