<svg width="220" height="28" viewBox="0 0 220 28" fill="none" xmlns="http://www.w3.org/2000/svg">
<path fill-rule="evenodd" clip-rule="evenodd" d="M53.2362 4.72943C53.2647 3.07293 54.4272 1.86914 56.0006 1.86914C57.3782 1.86914 58.1863 2.65739 58.1644 3.97784C58.1365 5.63331 56.9745 6.8371 55.4011 6.8371C54.0224 6.8371 53.2144 6.04885 53.2362 4.72943ZM50.8964 2.4268C50.9879 2.4268 51.0734 2.46758 51.1323 2.53882C51.1908 2.61005 51.2137 2.70503 51.1969 2.79537L47.5411 21.3044C47.5121 21.45 47.386 21.5553 47.24 21.5553L43.7978 21.5584C43.7068 21.5584 43.6208 21.5176 43.5623 21.4469C43.5044 21.3767 43.4789 21.2833 43.4952 21.194C43.571 20.7882 43.6401 20.4362 43.7103 20.1017C42.6332 21.3158 41.1895 21.9817 39.5444 21.9817C36.121 21.9817 33.8214 19.3728 33.8214 15.4883C33.8214 10.7682 36.8655 7.34262 41.0609 7.34262C43.1687 7.34262 44.8621 8.29708 45.7307 9.84673C45.8141 9.3806 47.1449 2.67768 47.1449 2.67768C47.1734 2.53107 47.3011 2.4268 47.447 2.4268H50.8964ZM44.0454 16.0376C44.2687 15.62 44.4253 15.1549 44.5107 14.6562C44.5987 14.1261 44.5987 13.6408 44.5107 13.215C44.4243 12.7958 44.2636 12.4334 44.0373 12.1361C43.8115 11.8414 43.5201 11.6091 43.1753 11.4465C42.8275 11.2823 42.4319 11.1992 41.995 11.1992C41.4982 11.1992 41.0232 11.3055 40.5833 11.5141C40.1394 11.7247 39.7453 12.0138 39.4132 12.3705C39.0791 12.7308 38.8045 13.1582 38.6006 13.6408C38.3946 14.1256 38.2766 14.6459 38.2471 15.1879C38.2253 15.637 38.2721 16.0484 38.3875 16.4113C38.5009 16.7675 38.6758 17.0757 38.9032 17.325C39.1325 17.5733 39.4117 17.7684 39.7341 17.9016C40.4262 18.1881 41.369 18.1695 42.1288 17.8484C42.5351 17.6765 42.9038 17.4355 43.2216 17.1309C43.5456 16.8227 43.8227 16.4557 44.0454 16.0376ZM56.5424 8.84927H52.9802C52.8296 8.84927 52.6989 8.94683 52.671 9.08053L50.2605 21.2139L50.3261 21.4509C50.3871 21.5175 50.4756 21.5551 50.5702 21.5551H54.133C54.2845 21.5551 54.4152 21.4591 54.4432 21.3239L56.8531 9.19151L56.7865 8.95406C56.7265 8.88747 56.638 8.84927 56.5424 8.84927ZM5.70546 15.3376C5.54359 16.2042 5.01072 19.057 4.7014 20.4543C4.48069 21.4516 3.51143 21.4387 3.51143 21.4387L1.73563 21.4516H0.320387C0.226817 21.4516 0.138333 21.4082 0.0788342 21.3365C0.020353 21.2621 -0.0127016 21.1651 0.00458848 21.0732L3.63043 2.68288C3.65941 2.53318 3.78807 2.4253 3.93707 2.4253H11.0896C15.2534 2.4253 17.7402 4.62278 17.7402 8.30384C17.7402 12.5027 14.7515 15.1136 9.94233 15.1136C9.94233 15.1136 5.90967 15.0842 5.75304 15.0842C5.7502 15.0981 5.73333 15.1884 5.70546 15.3376ZM6.53313 11.1481C6.63941 11.1481 10.0857 11.1295 10.0857 11.1295C12.0736 11.1295 13.2152 10.1632 13.2152 8.4778C13.2152 7.12483 12.3482 6.37995 10.7743 6.37995C10.7743 6.37995 7.65292 6.35775 7.47798 6.34949C7.44798 6.53842 6.5555 11.0392 6.53313 11.1481ZM82.9389 7.34221C78.2558 7.34221 74.8583 10.7337 74.8583 15.4043C74.8583 19.4002 77.5551 21.9823 81.7322 21.9823C86.4142 21.9823 89.8143 18.5929 89.8143 13.9212C89.8143 9.9253 87.116 7.34221 82.9389 7.34221ZM82.0053 17.8547C80.2356 17.8547 79.1783 16.8414 79.1783 15.1457C79.1783 13.0174 80.6449 11.4713 82.6664 11.4713C84.436 11.4713 85.4923 12.4841 85.4923 14.1799C85.4923 16.3097 84.0267 17.8547 82.0053 17.8547ZM75.1316 2.4268C75.2232 2.4268 75.3096 2.46758 75.3676 2.53882C75.4261 2.61005 75.4489 2.70503 75.4322 2.79537L71.7778 21.3044C71.7489 21.45 71.6212 21.5553 71.4758 21.5553L68.033 21.5584C67.942 21.5584 67.856 21.5176 67.7986 21.4469C67.7396 21.3767 67.7142 21.2833 67.7304 21.194C67.8077 20.7882 67.8754 20.4362 67.9455 20.1017C66.8685 21.3158 65.4248 21.9817 63.7812 21.9817C60.3562 21.9817 58.0566 19.3728 58.0566 15.4883C58.0566 10.7682 61.1007 7.34262 65.2961 7.34262C67.404 7.34262 69.0979 8.29708 69.967 9.84673C70.0493 9.3806 71.3812 2.67768 71.3812 2.67768C71.4102 2.53107 71.5363 2.4268 71.6823 2.4268H75.1316ZM68.3397 16.0376C68.5634 15.62 68.7211 15.1549 68.8065 14.6562C68.893 14.1261 68.893 13.6408 68.805 13.215C68.718 12.7958 68.5583 12.4334 68.332 12.1361C68.1037 11.8414 67.8138 11.6091 67.4701 11.4465C67.1222 11.2823 66.7251 11.1992 66.2888 11.1992C65.7929 11.1992 65.3169 11.3055 64.8781 11.5141C64.4341 11.7247 64.04 12.0138 63.7085 12.3705C63.3723 12.7308 63.0982 13.1582 62.8943 13.6408C62.6889 14.1256 62.5704 14.6459 62.5419 15.1879C62.518 15.637 62.5653 16.0484 62.6817 16.4113C62.7962 16.7675 62.9691 17.0757 63.1989 17.325C63.4277 17.5733 63.7064 17.7684 64.0288 17.9016C64.7209 18.1881 65.6633 18.1695 66.423 17.8484C66.8303 17.6765 67.1975 17.4355 67.5169 17.1309C67.8403 16.8227 68.1174 16.4557 68.3397 16.0376ZM101.189 8.40388C99.3923 7.57228 97.5479 7.21042 95.8555 7.36218C92.8943 7.62545 91.1933 9.41978 91.4206 12.0442C91.5579 13.6269 92.4493 14.8404 94.1489 15.7546L96.0243 16.752C96.7907 17.1691 96.8619 17.3611 96.8832 17.6083C96.9321 18.1751 96.2938 18.3166 95.9094 18.3517C94.7367 18.4559 93.3093 18.0053 91.7806 17.0477L91.5452 17.0116L91.355 17.1582L89.8533 19.8487C89.7755 19.9875 89.8167 20.1651 89.9453 20.2565C91.8111 21.5485 93.9597 22.1272 96.1621 21.9326C99.461 21.6384 101.214 19.8678 100.973 17.0741C100.828 15.3881 100.03 14.3217 98.2161 13.3909L96.5268 12.5242C95.5346 11.974 95.4827 11.8341 95.4609 11.5703C95.4476 11.4237 95.4085 10.9761 96.3569 10.8915C97.2977 10.8073 98.5304 11.0964 99.7402 11.6839L99.9756 11.6947L100.149 11.53L101.342 8.81014C101.41 8.65631 101.342 8.47409 101.189 8.40388ZM119.525 2.58342C119.651 2.58342 119.766 2.65414 119.823 2.76873C119.879 2.88178 119.867 3.01858 119.793 3.12027L110.91 14.7829L109.704 21.0501C109.618 21.5008 109.228 21.826 108.776 21.826H105.327C105.226 21.826 105.132 21.7811 105.069 21.7042C105.007 21.6262 104.98 21.5235 105 21.4254L106.355 14.6693L101.835 3.04335C101.799 2.94063 101.813 2.82603 101.877 2.73621C101.939 2.64794 102.041 2.59426 102.147 2.59426H106.412C106.56 2.59426 106.69 2.69337 106.732 2.83687C106.732 2.83687 109.108 9.73286 109.199 10.3647C109.537 9.69775 114.376 2.73105 114.376 2.73105C114.438 2.63813 114.542 2.58342 114.652 2.58342H119.525ZM130.177 8.04042C130.12 7.97022 130.037 7.92996 129.947 7.92996H126.587C126.443 7.92996 126.32 8.03268 126.293 8.17515C126.293 8.17515 126.166 8.82712 126.085 9.28241L126.082 9.29738C125.321 8.36254 124.134 7.78955 122.959 7.71573C121.885 7.64811 120.843 7.82259 119.838 8.21232C116.53 9.48993 114.326 12.7911 114.363 16.4097C114.395 19.5585 116.422 21.6703 119.511 21.8179C121.171 21.8974 122.616 21.3947 123.93 20.259C123.86 20.5961 123.774 21.038 123.716 21.342L123.782 21.5893C123.839 21.6574 123.922 21.6971 124.011 21.6971L127.366 21.6951C127.508 21.6951 127.631 21.5918 127.658 21.4504L130.239 8.29078C130.257 8.20148 130.233 8.1096 130.177 8.04042ZM124.975 14.8177C124.893 15.2947 124.743 15.7381 124.53 16.1366C124.317 16.5346 124.053 16.8861 123.743 17.1798C123.439 17.4694 123.088 17.7007 122.7 17.8654C121.975 18.1709 121.075 18.1906 120.414 17.9159C120.107 17.7879 119.841 17.6031 119.622 17.3652C119.405 17.1267 119.238 16.8329 119.131 16.4933C119.02 16.1474 118.974 15.7546 118.997 15.3261C119.023 14.8089 119.136 14.3113 119.332 13.8498C119.528 13.3888 119.789 12.9805 120.109 12.6372C120.425 12.2965 120.801 12.0209 121.226 11.818C121.645 11.6203 122.097 11.5196 122.574 11.5196C122.988 11.5196 123.367 11.5991 123.699 11.755C124.028 11.9104 124.304 12.1313 124.521 12.4142C124.739 12.6971 124.89 13.043 124.975 13.442C125.058 13.8493 125.058 14.3128 124.975 14.8177ZM18.0351 15.4167C18.0351 10.7296 21.3757 7.32884 25.9759 7.32884C29.8539 7.32884 32.2618 9.51135 32.2618 13.0241C32.2618 13.7912 32.1347 14.5175 31.9191 15.5138C31.8875 15.6552 31.763 15.7569 31.6185 15.7569L21.96 15.7879C21.9854 17.3814 23.1326 18.2972 25.1068 18.2972C26.0715 18.2972 26.9456 18.0747 27.8722 17.574C27.9881 17.512 28.1305 17.5301 28.222 17.6256L30.3401 19.8473C30.4672 19.981 30.4448 20.2045 30.2913 20.3073C28.5907 21.4605 26.9746 21.9689 25.0224 21.9689C20.7125 21.9689 18.0351 19.4591 18.0351 15.4167ZM25.893 10.4018C24.1807 10.4018 23.0299 11.203 22.3917 12.7521C22.5434 12.7521 24.075 12.7561 25.576 12.7601C27.018 12.7639 28.4318 12.7676 28.5663 12.7676C28.5129 11.2066 27.6377 10.4018 25.893 10.4018Z" fill="#FA0050"/>
<path fill-rule="evenodd" clip-rule="evenodd" d="M140.528 0H219.286C219.747 0 220.075 0.413997 219.985 0.88013L214.837 27.3243C214.762 27.7109 214.42 28 214.038 28H135.279C134.819 28 134.491 27.586 134.581 27.1204L139.729 0.675713C139.804 0.289075 140.146 0 140.528 0ZM184.921 7.55275L187.015 3.60017L190.61 3.95429L187.022 7.55275H184.921ZM187.112 9.65165L184.872 21.1011H181.681L183.921 9.65165H187.112ZM147.253 14.1498L146.457 18.2118H154.727L154.159 21.101H142.671L145.863 4.74501H157.351L156.783 7.63421H148.513L147.782 11.4784H154.749L154.22 14.1498H147.253ZM156.552 21.1011L158.791 9.6517H160.786L160.931 11.2602H161.117C162.203 9.97897 163.33 9.35178 165.112 9.35178C167.983 9.35178 169.355 11.3691 168.748 14.4498L167.454 21.1011H164.264L165.515 14.7224C165.782 13.3317 165.183 12.2141 163.747 12.2141C162.284 12.2141 161.257 13.4138 161.031 14.5587L159.743 21.1011H156.552ZM174.756 16.3037L173.683 9.65185H170.199L172.959 21.1013H175.219L182.458 9.65185H178.975L175.314 16.3037C175.136 16.6031 174.958 16.9303 174.914 17.2303H174.754C174.799 16.9303 174.791 16.6031 174.756 16.3037ZM194.767 11.9691C196.123 11.9691 196.987 13.114 196.888 14.8041C196.748 17.2029 195.192 18.784 193.437 18.784C192.027 18.784 191.214 17.6938 191.314 15.9764C191.452 13.6318 192.958 11.9691 194.767 11.9691ZM188.136 16.2216C187.952 19.3565 190.014 21.3738 192.939 21.3738C196.45 21.3738 199.797 18.7025 200.035 14.6405C200.222 11.4508 198.19 9.37929 195.291 9.37929C191.754 9.37929 188.374 12.1596 188.136 16.2216ZM205.471 18.9748C206.828 18.9748 207.333 18.5113 207.368 17.9114C207.407 17.2475 206.532 16.9834 205.481 16.6662C203.9 16.189 201.92 15.5914 202.052 13.3317C202.18 11.1512 204.013 9.37909 207.257 9.37909C210.448 9.37909 211.931 10.3878 211.931 10.3878L210.485 12.8139C210.485 12.8139 209.189 11.8053 207.167 11.8053C206.024 11.8053 205.394 12.1325 205.352 12.8413C205.316 13.4591 206.171 13.6939 207.213 13.9801C208.837 14.4264 210.916 14.9974 210.779 17.3395C210.651 19.5199 209.001 21.3736 205.171 21.3736C201.794 21.3736 200.592 20.0924 200.592 20.0924L202.079 17.8572C202.079 17.8572 203.53 18.9748 205.471 18.9748Z" fill="#FA0050"/>
</svg>
