<svg xmlns="http://www.w3.org/2000/svg" xmlns:xlink="http://www.w3.org/1999/xlink" width="213" height="212" viewBox="0 0 213 212">
    <defs>
        <path id="axsl15mqsa" d="M141.711 1.096c63.206 5.644 102.352 184.83-39.112 174.626C-38.865 165.519-7.346 47.509 41.352 41.982c48.698-5.528 37.153-46.53 100.36-40.886z"/>
        <path id="ubb8cqmjdc" d="M72.556.744c1.879 0 3.401 1.523 3.401 3.401v.638c0 1.878-1.522 3.4-3.4 3.4H3.4C1.523 8.184 0 6.662 0 4.784v-.638C0 2.267 1.523.744 3.401.744h69.155z"/>
        <path id="9ne2n0721e" d="M72.556.744c1.879 0 3.401 1.523 3.401 3.401v.638c0 1.878-1.522 3.4-3.4 3.4H3.4C1.523 8.184 0 6.662 0 4.784v-.638C0 2.267 1.523.744 3.401.744h69.155z"/>
        <path id="mgl8lj0pdg" d="M72.556.744c1.879 0 3.401 1.523 3.401 3.401v.638c0 1.878-1.522 3.4-3.4 3.4H3.4C1.523 8.184 0 6.662 0 4.784v-.638C0 2.267 1.523.744 3.401.744h69.155z"/>
        <path id="4d5cofxw7i" d="M49.46 4.885c6.324 6.233 6.636 16.24.711 22.844-5.925 6.603-16.041 7.524-23.093 2.1v1.307c0 .511-.205 1.002-.572 1.364L7.58 47.25c-.366.362-3.335 2.632-3.853 2.632-.519 0-1.52-.85-1.885-1.213l-1.27-1.42c-.765-.752-.76-2.186 0-2.944l1.743-1.51 19.12-15.29c.368-.362.866-.564 1.385-.564h1.326c-5.502-6.949-4.568-16.918 2.133-22.757 6.7-5.839 16.855-5.532 23.18.701zM37.411 6.802c-5.635 0-10.203 4.568-10.203 10.202-.002 2.707 1.072 5.303 2.986 7.217 1.913 1.914 4.51 2.989 7.217 2.988 5.635-.003 10.203-4.57 10.203-10.205 0-5.634-4.568-10.202-10.203-10.202z"/>
        <path id="45lic060hk" d="M12.47 1.071c6.888 0 12.471 5.583 12.471 12.47 0 6.888-5.583 12.471-12.47 12.471C5.583 26.012 0 20.43 0 13.542c0-6.888 5.583-12.47 12.47-12.47z"/>
        <path id="t58srfm4gm" d="M12.802 1.204c.118.455-.911 3.886-.74 6.868.16 2.788-2.169 4.917-2.47 5.18l-.032.027s-6.643-.744-7.485-1.477c-.842-.735-1.204-2.991-.78-3.73.424-.737 5.75-4.4 7.04-5.537C9.627 1.4 10.553.871 11.155.431c.602-.44 1.528.318 1.647.773z"/>
        <path id="p7p7iznnjo" d="M17.682.86l6.404 1.296v.036c-.011.6-.164 8.715-.6 17.573l-.052 1.045c-.02.403-.042.807-.064 1.211l-.067 1.213c-.405 7.076-.997 14.067-1.848 17.608C18.26 54.156 7.818 57.932 4.757 55.194c-2.19-1.958-2.29-6.766-4.385-11.575C1.952 29.878 14.812 8.2 15.07 7.767l.004-.006 2.608-6.9z"/>
        <path id="ycaj6ky1mq" d="M.532 1.063L11.768 5.16s29.368 21.743 35.791 26.658c6.424 4.914 11.818 1.715 11.63 2.029-.35.942-4.447 8.655-11.06 9.714-5.64.903-10.586-1.212-13.145-2.334-5.562-2.436-24.6-9.503-27.29-16.125-.953-2.349-2.132-6.056-3.256-9.863l-.335-1.144-.228-.786C2.065 7.031.532 1.063.532 1.063z"/>
        <path id="zfrmq8abbs" d="M5.409 1.486s.182.168.478.461l.214.214c1.682 1.692 5.74 6.121 4.27 8.108 0 0-1.19-.986-1.528-2.25l-.045-.2.01.187c.065 1.261.095 3.789-.312 5.968-.69 3.699-6.019 1.708-7.511-11.768 0 0 .544-3.366 4.424-.72z"/>
        <path id="tcqa1p69pu" d="M61.25.89c1.029.332 2.1.617 3.178.902l.809.215c3.643.973 7.273 2.092 9.575 5.228 1.969 2.68 2.899 5.972 3.568 9.227.736 3.583 1.144 7.097 1.28 10.564.501 12.806-2.702 24.97-6.714 37.53-.878 2.743-1.788 5.474-2.73 8.194-.466 1.35-1.292 6.025-2.42 6.8-16.308 11.169-34.74.67-35.83.03l-.051-.03-2.99-22.04c-1.237-9.136-2.415-17.844-2.53-18.765-.251-2.004-5.232 1.173-8.744 7.681-3.513 6.51 10.921 22.835 10.921 22.835-4.43-.304-4.668 1.2-4.676 1.463l.001.039S5.401 63.127 2.094 54.436c-3.307-8.69-6.31-33.048 21.123-47.734C35.313.668 48.35-.674 61.25.89z"/>
        <path id="f4ti8stefw" d="M22.743 4.116c.981 1.515 1.475 3.31 1.765 5.105.578 3.588.37 7.3-.567 10.805-.102.383-.213.764-.333 1.141-.848 2.677-2.083 7.266-5.052 8.185-.388.12-.806.226-1.239.321l-.437.092v4.73s-3.795 4.17-9.917.208l-.313-.208v-6.559c-2.275-2.589-2.383-7.535-2.383-7.535-1.542 0-5.325-2.157-3.924-7.478 1.245-4.73 2.824-3.55 3.16-3.23l.034.036.03.032C4.168 5.026 7.733 1.574 12.3.939c3.751-.523 8.135-.386 10.443 3.177z"/>
        <path id="6yukyop6yy" d="M40.89 0c2.024 3.668 3.817 10.61 5.994 15.872-16.097-1.79-32.5-5.603-46.385-9.713C2.38 2.766 4.604.295 4.757.22 26.98 6.448 40.89 0 40.89 0z"/>
        <path id="hbvwmq8dgA" d="M25.25 5.04c.71.865 2.66-1.799 4.767-.774 2.106 1.025 3.265.658 1.841 2.506-1.422 1.847-3.847 2.457-2.412 4.04 1.342 1.48 3.45 2.188 2.818 3.965-3.48.173-6.92 2.349-7.392 5.983 0 0-1.693-3.126-3.09 2.071-1.398 5.198 2.06 6.216 3.09 4.144.097-.155 1.446.813.23 3.86-.291.731.883 1.235.8 1.319-1.03 1.035.437 6.44-2.06 5.18-2.497-1.263-1.67 3.8-3.09 2.07-1.422-1.728-2.818 1.177-4.636 1.67-1.378.374-1.302-3.008-3.605-2.705-1.698-.428-3.467 2.63-5.15 1.036-.966-.914-1.953-6.082-2.758-7.385-.306-.495-2.122-.351-2.393-.902-.792-1.61.103-4.131-.291-6.23-.477-2.534-1.806-6.029-1.77-8.272.073-4.395 2.232-6.922 4.209-8.566C5.855 5.82 7.777 4.496 9.165 4.385c2.555-.205 3.057-4.021 6.901-2.473 3.845 1.549 3.443 2.374 6.788-.13C26.2-.72 24.54 4.177 25.25 5.04z"/>
    </defs>
    <g fill="none" fill-rule="evenodd">
        <g>
            <g>
                <g>
                    <g transform="translate(-81 -125) translate(80.5 125) translate(.411 17.078)">
                        <mask id="ci0nelnkab" fill="#fff">
                            <use xlink:href="#axsl15mqsa"/>
                        </mask>
                        <path fill="#FAFAFB" d="M2.569 -12.967L249.499 -0.026 239.584 189.166 -7.346 176.225z" mask="url(#ci0nelnkab)"/>
                    </g>
                    <g transform="translate(-81 -125) translate(80.5 125) translate(.411 17.078) translate(136.043 29.476)">
                        <mask id="oiei9c8hrd" fill="#fff">
                            <use xlink:href="#ubb8cqmjdc"/>
                        </mask>
                        <path fill="#DDD" d="M-5.668 13.852L92.963 13.852 92.963 -4.925 -5.668 -4.925z" mask="url(#oiei9c8hrd)"/>
                    </g>
                    <g transform="translate(-81 -125) translate(80.5 125) translate(.411 17.078) translate(136.043 41.947)">
                        <mask id="kbn75sn82f" fill="#fff">
                            <use xlink:href="#9ne2n0721e"/>
                        </mask>
                        <path fill="#DDD" d="M-5.668 13.852L92.963 13.852 92.963 -4.925 -5.668 -4.925z" mask="url(#kbn75sn82f)"/>
                    </g>
                    <g transform="translate(-81 -125) translate(80.5 125) translate(.411 17.078) translate(136.043 54.417)">
                        <mask id="ck1atksdjh" fill="#fff">
                            <use xlink:href="#mgl8lj0pdg"/>
                        </mask>
                        <path fill="#DDD" d="M-5.668 13.852L92.963 13.852 92.963 -4.925 -5.668 -4.925z" mask="url(#ck1atksdjh)"/>
                    </g>
                    <g transform="translate(-81 -125) translate(80.5 125) translate(.411 17.078) translate(138.31 26.075)">
                        <mask id="bmabfr9yjj" fill="#fff">
                            <use xlink:href="#4d5cofxw7i"/>
                        </mask>
                        <path fill="#00D9FC" d="M-5.668 55.551L60.086 55.551 60.086 -5.668 -5.668 -5.668z" mask="url(#bmabfr9yjj)"/>
                    </g>
                    <g transform="translate(-81 -125) translate(80.5 125) translate(.411 17.078) translate(163.251 29.538)">
                        <mask id="kdikrxxngl" fill="#fff">
                            <use xlink:href="#45lic060hk"/>
                        </mask>
                        <path fill="#FFF" d="M-5.668 32.814L32.877 32.814 32.877 -5.731 -5.668 -5.731z" mask="url(#kdikrxxngl)"/>
                    </g>
                    <g>
                        <g transform="translate(-81 -125) translate(80.5 125) translate(.411 17.078) translate(26.075 39.68) translate(115.636 17.005)">
                            <mask id="wqrsl5z3un" fill="#fff">
                                <use xlink:href="#t58srfm4gm"/>
                            </mask>
                            <path fill="#FFE1E0" fill-rule="nonzero" d="M-4.552 -5.37L18.48 -5.37 18.48 18.948 -4.552 18.948z" mask="url(#wqrsl5z3un)"/>
                        </g>
                        <g transform="translate(-81 -125) translate(80.5 125) translate(.411 17.078) translate(26.075 39.68) translate(100.898 28.342)">
                            <mask id="1pp49504jp" fill="#fff">
                                <use xlink:href="#p7p7iznnjo"/>
                            </mask>
                            <path fill="#CC3341" d="M-5.297 -4.808L29.755 -4.808 29.755 61.699 -5.297 61.699z" mask="url(#1pp49504jp)"/>
                        </g>
                        <g transform="translate(-81 -125) translate(80.5 125) translate(.411 17.078) translate(26.075 39.68) translate(61.22 40.813)">
                            <mask id="jo7k3n6ppr" fill="#fff">
                                <use xlink:href="#ycaj6ky1mq"/>
                            </mask>
                            <path fill="#F52F41" d="M-3.951 -5.583L64.343 7.692 55.776 51.767 -12.518 38.492z" mask="url(#jo7k3n6ppr)"/>
                        </g>
                        <g transform="translate(-81 -125) translate(80.5 125) translate(.411 17.078) translate(26.075 39.68) translate(22.674 107.7)">
                            <mask id="tz66kzst5t" fill="#fff">
                                <use xlink:href="#zfrmq8abbs"/>
                            </mask>
                            <path fill="#FFE1E0" fill-rule="nonzero" d="M-4.683 -5.197L16.355 -5.197 16.355 21.284 -4.683 21.284z" mask="url(#tz66kzst5t)"/>
                        </g>
                        <g transform="translate(-81 -125) translate(80.5 125) translate(.411 17.078) translate(26.075 39.68) translate(0 40.813)">
                            <mask id="xomci6k25v" fill="#fff">
                                <use xlink:href="#tcqa1p69pu"/>
                            </mask>
                            <path fill="#F52F41" d="M-4.646 -5.379L85.38 -5.379 85.38 90.336 -4.646 90.336z" mask="url(#xomci6k25v)"/>
                        </g>
                        <g transform="translate(-81 -125) translate(80.5 125) translate(.411 17.078) translate(26.075 39.68) translate(41.947 7.936)">
                            <mask id="5qot23k4gx" fill="#fff">
                                <use xlink:href="#f4ti8stefw"/>
                            </mask>
                            <path fill="#FFE1E0" fill-rule="nonzero" d="M-5.631 -4.955L30.498 -4.955 30.498 42.08 -5.631 42.08z" mask="url(#5qot23k4gx)"/>
                        </g>
                        <g transform="translate(-81 -125) translate(80.5 125) translate(.411 17.078) translate(26.075 39.68) translate(27.209 120.171)">
                            <mask id="r2uwy5rgwz" fill="#fff">
                                <use xlink:href="#6yukyop6yy"/>
                            </mask>
                            <path fill="#273239" d="M-18.92 -4.687L77.574 -4.687 77.574 161.343 -18.92 161.343z" mask="url(#r2uwy5rgwz)"/>
                        </g>
                        <g transform="translate(-81 -125) translate(80.5 125) translate(.411 17.078) translate(26.075 39.68) translate(39.68)">
                            <mask id="ipff5snpqB" fill="#fff">
                                <use xlink:href="#hbvwmq8dgA"/>
                            </mask>
                            <path fill="#2B1A46" d="M-5.52 -4.592L38.155 -4.592 38.155 46.771 -5.52 46.771z" mask="url(#ipff5snpqB)"/>
                        </g>
                    </g>
                </g>
            </g>
        </g>
    </g>
</svg>
