<svg xmlns="http://www.w3.org/2000/svg" width="192" height="24" viewBox="0 0 192 24">
    <g fill="none" fill-rule="evenodd">
        <path fill="#FFF" d="M72.152 6.292c3.634 0 5.982 2.214 5.982 5.639 0 4.003-2.958 6.908-7.031 6.908-3.634 0-5.98-2.213-5.98-5.637 0-4.003 2.955-6.91 7.03-6.91zM44.277 2.08c.08 0 .154.035.205.096.051.06.071.142.057.22l-3.18 15.862c-.026.125-.136.215-.263.215l-2.994.003c-.08 0-.154-.035-.205-.096-.05-.06-.073-.14-.058-.217.065-.347.126-.649.187-.936-.937 1.04-2.193 1.612-3.624 1.612-2.979 0-4.98-2.236-4.98-5.565 0-4.046 2.649-6.981 6.299-6.981 1.834 0 3.307.818 4.062 2.146.073-.4 1.23-6.144 1.23-6.144.025-.126.136-.215.263-.215zm21.084 0c.08 0 .154.035.205.096.05.06.07.142.056.22l-3.18 15.862c-.024.125-.135.215-.262.215l-2.995.003c-.08 0-.154-.035-.204-.096-.051-.06-.073-.14-.06-.217.068-.347.127-.649.188-.936-.937 1.04-2.193 1.612-3.623 1.612-2.98 0-4.98-2.236-4.98-5.565 0-4.046 2.648-6.981 6.298-6.981 1.834 0 3.307.818 4.064 2.146.071-.4 1.23-6.144 1.23-6.144.025-.126.135-.215.262-.215zm18.028 4.23c1.472-.13 3.077.18 4.64.892.133.06.192.216.133.348l-1.038 2.331-.15.141-.205-.009c-1.053-.503-2.125-.751-2.944-.679-.825.073-.79.456-.78.582.02.226.065.346.928.817l1.47.743c1.577.798 2.272 1.712 2.398 3.157.21 2.394-1.315 3.911-4.185 4.163-1.916.167-3.785-.329-5.408-1.436-.112-.078-.148-.23-.08-.35l1.306-2.305.165-.126.205.031c1.33.82 2.572 1.207 3.592 1.118.335-.03.89-.152.847-.638-.018-.211-.08-.376-.747-.733l-1.631-.855c-1.479-.784-2.254-1.824-2.374-3.18-.198-2.25 1.282-3.787 3.858-4.013zm-60.791-.03c3.373 0 5.468 1.871 5.468 4.882 0 .657-.11 1.28-.298 2.133-.028.122-.136.209-.262.209l-8.402.026c.022 1.366 1.02 2.15 2.738 2.15.839 0 1.6-.19 2.405-.619.101-.053.225-.038.305.044l1.842 1.904c.11.115.091.306-.042.395-1.48.988-2.886 1.424-4.584 1.424-3.75 0-6.078-2.151-6.078-5.616 0-4.017 2.906-6.931 6.908-6.931zm81.383-4.066c.109 0 .21.06.259.159.049.097.038.214-.027.301l-7.727 9.995-1.05 5.371c-.074.386-.413.665-.807.665h-3c-.088 0-.17-.038-.224-.104-.055-.067-.078-.155-.06-.24l1.179-5.79-3.933-9.963c-.032-.088-.019-.186.037-.263.054-.076.142-.122.234-.122h3.71c.13 0 .242.085.279.208 0 0 2.067 5.91 2.146 6.452.28-.545 4.112-5.986 4.476-6.503l.028-.04c.054-.08.145-.126.24-.126zm2.677 4.387l.31.011c1.022.064 2.055.555 2.716 1.356l.003-.013c.07-.39.18-.949.18-.949.024-.122.132-.21.257-.21h2.923c.078 0 .15.034.2.095.05.059.07.138.054.214l-2.245 11.278c-.024.121-.131.21-.255.21l-2.918.002c-.077 0-.15-.034-.2-.093l-.056-.212c.05-.26.125-.639.185-.928-1.143.973-2.4 1.404-3.844 1.336-2.687-.126-4.45-1.936-4.478-4.635-.033-3.101 1.885-5.93 4.763-7.025.874-.334 1.78-.484 2.715-.426zm-57.47.983c.084 0 .161.033.213.09l.058.203-2.096 10.398c-.025.116-.138.198-.27.198h-3.1c-.082 0-.159-.032-.212-.09l-.057-.202 2.097-10.399c.024-.115.138-.198.269-.198zM9.649 2.078c3.622 0 5.785 1.884 5.785 5.038 0 3.599-2.6 5.836-6.784 5.836l-3.556-.024h-.088c-.017.08-.6 3.198-.915 4.602-.192.854-1.035.843-1.035.843l-1.545.011H.279c-.082 0-.159-.037-.21-.098-.051-.064-.08-.147-.065-.226L3.158 2.3c.025-.13.137-.222.267-.222zm96.985 7.794c-.415 0-.808.087-1.173.256-.37.174-.697.41-.971.702-.28.294-.506.644-.677 1.04-.17.395-.269.821-.291 1.265-.02.367.02.703.116 1 .094.291.239.543.428.747.19.204.422.362.689.472.575.235 1.358.219 1.988-.043.338-.141.644-.34.908-.588.27-.251.5-.553.684-.894.186-.341.316-.721.388-1.13.072-.433.072-.83 0-1.18-.074-.341-.206-.638-.395-.88-.19-.242-.43-.432-.715-.565-.29-.133-.62-.202-.98-.202zm-70.1-.274c-.432 0-.845.09-1.228.27-.386.18-.729.428-1.018.734-.29.308-.53.675-.707 1.088-.179.416-.281.862-.307 1.326-.019.385.022.738.122 1.049.099.305.25.569.449.783.2.212.442.38.723.494.602.245 1.422.23 2.083-.046.353-.147.674-.354.95-.615.282-.264.523-.578.717-.937.194-.358.33-.756.405-1.184.077-.454.077-.87 0-1.235-.075-.359-.215-.67-.412-.924-.196-.253-.45-.452-.75-.591-.302-.141-.647-.212-1.027-.212zm21.135 0c-.432 0-.846.09-1.228.27-.386.18-.729.428-1.017.734-.292.308-.53.675-.708 1.088-.179.416-.282.862-.307 1.326-.02.385.02.738.122 1.049.1.305.25.569.45.783.199.212.441.38.722.494.602.245 1.422.23 2.082-.046.355-.147.674-.354.952-.615.281-.264.523-.578.716-.937.195-.358.332-.756.406-1.184.075-.454.075-.87-.001-1.235-.076-.359-.215-.67-.412-.924-.198-.253-.45-.452-.75-.591-.302-.141-.648-.212-1.027-.212zm14.247.233c-1.758 0-3.034 1.325-3.034 3.149 0 1.453.92 2.322 2.46 2.322 1.758 0 3.033-1.324 3.033-3.15 0-1.453-.92-2.321-2.459-2.321zm-49.39-.917c-1.489 0-2.49.687-3.045 2.015l5.371.013c-.046-1.338-.808-2.028-2.325-2.028zM6.506 5.441c-.026.162-.802 4.02-.822 4.113l3.027-.016h.064c1.73 0 2.723-.828 2.723-2.273 0-1.159-.755-1.797-2.124-1.797 0 0-2.715-.02-2.868-.027zm42.213-3.84c1.198 0 1.901.676 1.882 1.808-.024 1.419-1.035 2.45-2.404 2.45-1.2 0-1.902-.675-1.883-1.806.024-1.42 1.036-2.451 2.405-2.451zM190.768 0h-68.516c-.332 0-.63.248-.695.58l-4.478 22.663c-.079.399.207.753.607.753h68.516c.332 0 .63-.247.695-.579L191.375.754c.079-.4-.207-.754-.607-.754"/>
        <path fill="#F52F41" d="M169.893 8.038c2.522 0 4.29 1.776 4.127 4.51-.207 3.48-3.12 5.77-6.173 5.77-2.545 0-4.338-1.73-4.179-4.416.208-3.481 3.148-5.864 6.225-5.864zm10.41 0c2.776 0 4.066.864 4.066.864l-1.258 2.08s-1.128-.865-2.886-.865c-.995 0-1.543.28-1.58.888-.08 1.355 4.918.56 4.722 3.855-.111 1.869-1.548 3.458-4.88 3.458-2.937 0-3.982-1.098-3.982-1.098l1.293-1.916s1.263.958 2.951.958c1.18 0 1.62-.398 1.65-.912.085-1.425-4.816-.7-4.624-3.925.111-1.868 1.705-3.387 4.528-3.387zm-43.416-3.971l-.494 2.476h-7.195l-.635 3.294h6.06l-.46 2.29h-6.06l-.693 3.48h7.195l-.495 2.477h-9.994l2.778-14.017h9.993zm6.751 3.948c2.499 0 3.692 1.729 3.164 4.369l-1.126 5.7h-2.775l1.088-5.467c.233-1.191-.288-2.15-1.538-2.15-1.272 0-2.166 1.029-2.363 2.01l-1.12 5.607h-2.776l1.948-9.812h1.735l.126 1.378h.163c.944-1.098 1.924-1.635 3.474-1.635zm7.457.257l.933 5.7c.031.257.038.538-.001.795h.139c.039-.257.194-.538.348-.794l3.185-5.701h3.03l-6.297 9.812h-1.967l-2.4-9.812h3.03zm11.683 0l-1.949 9.812h-2.776l1.948-9.812h2.777zm6.659 1.986c-1.573 0-2.884 1.425-3.004 3.434-.087 1.472.62 2.406 1.847 2.406 1.527 0 2.88-1.355 3.002-3.41.086-1.45-.665-2.43-1.845-2.43zm-6.744-7.173l3.128.304-3.122 3.084h-1.827l1.82-3.388z"/>
    </g>
</svg>
