<svg width="24" height="24" viewBox="0 0 24 24" fill="none" xmlns="http://www.w3.org/2000/svg">
    <path fill-rule="evenodd" clip-rule="evenodd" d="M12.024 0.550781C16.2407 0.550781 19.6894 3.83884 19.9461 7.99091L19.9588 8.27792C21.8589 8.58948 23.3966 10.0747 23.7315 12.0254C24.0971 14.1556 22.9254 16.2407 20.9415 17.0463L20.919 17.0538L20.9198 18.5508C20.9198 20.6978 19.273 22.0869 17.0341 22.1717L16.8327 22.1752C16.7141 22.8172 16.181 23.3139 15.5213 23.3773L15.3781 23.3841H11.5448C10.6005 23.3841 9.80208 22.7128 9.61927 21.757L9.59459 21.5951L9.58648 21.4258C9.58648 20.3934 10.3854 19.5476 11.3987 19.4728L11.5448 19.4674H15.3781C16.1024 19.4674 16.7051 19.988 16.8325 20.6754L16.8156 20.6758C18.3341 20.6758 19.3339 19.924 19.4145 18.7115L19.4198 18.5508L19.4187 17.0467C19.3377 17.007 19.2593 16.9607 19.1844 16.9078C18.7766 16.6199 18.5175 16.1699 18.4696 15.6782L18.4615 15.5129V8.48828C18.4615 4.93295 15.5793 2.05078 12.024 2.05078C8.54593 2.05078 5.71211 4.809 5.59054 8.25739L5.58648 8.48828V15.5133C5.58616 16.0679 5.31661 16.5879 4.86356 16.9078C4.4105 17.2277 3.83034 17.3078 3.30847 17.1229C1.20241 16.3796 -0.0613235 14.2266 0.316489 12.0254C0.651322 10.0747 2.18905 8.58948 4.08916 8.27792L4.10151 7.9957C4.35587 3.84137 7.80564 0.550781 12.024 0.550781ZM19.9611 9.80978L19.9615 15.5124C19.9615 15.5801 19.9944 15.6435 20.0496 15.6825C20.1049 15.7215 20.1756 15.7313 20.2403 15.7084C21.6571 15.2084 22.5073 13.76 22.2531 12.2792C22.0611 11.1604 21.2809 10.2692 20.2629 9.90082L20.0808 9.8413L19.9611 9.80978ZM4.08607 9.80978L3.96714 9.8413C2.86093 10.1651 1.9982 11.0945 1.79487 12.2792C1.54071 13.76 2.39085 15.2084 3.80856 15.7087C3.87231 15.7313 3.94307 15.7215 3.99832 15.6825C4.03976 15.6532 4.0686 15.6103 4.08046 15.5622L4.08648 15.5129L4.08607 9.80978Z" fill="#2B1A46"/>
</svg>
